<?xml version="1.0" encoding="utf-8"?>
<!-- Generator: Adobe Illustrator 21.1.0, SVG Export Plug-In . SVG Version: 6.00 Build 0)  -->
<svg version="1.1" id="Capa_1" xmlns="http://www.w3.org/2000/svg" xmlns:xlink="http://www.w3.org/1999/xlink" x="0px" y="0px"
	 viewBox="0 0 409 75" style="enable-background:new 0 0 409 75;" xml:space="preserve">
<style type="text/css">
	.st0{fill:#46797B;}
	.st1{fill:#95D600;}
</style>
<g>
	<polygon class="st0" points="1576.9,553.7 1580.1,553.7 1594.4,589.7 1594.5,589.7 1608.6,553.7 1611.9,553.7 1611.9,592.4 
		1609.6,592.4 1609.6,556.6 1609.5,556.6 1595.6,592.4 1593.3,592.4 1579.2,556.6 1579.1,556.6 1579.1,592.4 1576.9,592.4 	"/>
	<path class="st0" d="M1638,577c-0.1-5.9-3.6-11.3-9.6-11.3c-5.8,0-9.3,5.7-9.7,11.3H1638z M1618.7,578.7
		c-0.1,6.6,3.2,12.5,9.7,12.5c5,0,8.5-3.1,9.4-8.3h1.9c-1,6.5-5.1,10.1-11.4,10.1c-7.7,0-11.7-6.4-11.6-14.1
		c-0.1-7.6,3.7-15.1,11.6-15.1c8.2,0,11.9,6.9,11.6,14.8H1618.7z"/>
	<path class="st0" d="M1655.5,590.3c6.9,0,9.3-6.1,9.3-11.9c0-5.8-2.4-11.9-9.3-11.9c-6.1,0-8.7,6.1-8.7,11.9
		C1646.8,584.2,1649.3,590.3,1655.5,590.3 M1668,592.4h-3v-5.3h-0.1c-1.4,3.6-5.6,6.1-9.4,6.1c-8,0-11.9-6.9-11.9-14.8
		c0-7.9,3.8-14.8,11.9-14.8c3.9,0,7.8,2.1,9.2,6.1h0.1v-16h3.2V592.4z"/>
	<path class="st0" d="M1674.2,564.4h3.2v28h-3.2V564.4z M1674.2,553.7h3.2v5.5h-3.2V553.7z"/>
	<path class="st0" d="M1691.8,576.4h12.4l-6.1-18h-0.1L1691.8,576.4z M1695.5,553.7h5.4l14.3,38.7h-5.4l-4-11.6h-15.5l-4.1,11.6h-5
		L1695.5,553.7z"/>
	<path class="st0" d="M1734.9,573.4c-0.7-3.5-3-5.6-6.6-5.6c-6.3,0-8.2,5.3-8.2,10.9c0,5.1,2.2,10.2,7.7,10.2c4.2,0,6.7-2.6,7.3-6.8
		h4.5c-1,6.8-5,10.9-11.7,10.9c-8.1,0-12.4-6-12.4-14.3c0-8.4,4.1-15,12.5-15c6,0,10.8,3,11.4,9.6H1734.9z"/>
	<path class="st0" d="M1761,574.3c-0.5-3.1-2.4-4.8-5.4-4.8c-4.7,0-6.2,5-6.2,9.1c0,4,1.5,8.8,6,8.8c3.4,0,5.3-2.3,5.8-5.7h7
		c-0.9,7.4-5.8,11.5-12.8,11.5c-8,0-13.4-6-13.4-14.4c0-8.7,4.9-15.2,13.5-15.2c6.2,0,12,3.5,12.4,10.6H1761z"/>
	<path class="st0" d="M1789.6,575.4c-0.7-3.9-2.3-6-5.8-6c-4.6,0-5.9,3.8-6,6H1789.6z M1777.8,580.3c0.2,4.9,2.5,7.1,6.5,7.1
		c2.9,0,5.3-1.9,5.7-3.6h6.4c-2,6.6-6.4,9.4-12.4,9.4c-8.3,0-13.5-6.1-13.5-14.7c0-8.4,5.5-14.8,13.5-14.8c9,0,13.4,8,12.9,16.6
		H1777.8z"/>
	<path class="st0" d="M1807.1,583.1c0,1.4,0.6,2.4,1.4,3.1c0.8,0.7,2,1,3.2,1c1.7,0,4.1-0.8,4.1-3c0-2.2-2.7-2.6-4.3-3
		c-5.5-1.5-12.3-1.6-12.3-9.2c0-6.8,6.9-8.6,12.1-8.6c5.8,0,11.9,1.8,12.2,9.1h-8c0-1.2-0.4-2-1.1-2.4c-0.7-0.5-1.7-0.7-2.8-0.7
		c-1.4,0-3.7,0.2-3.7,2.1c0,2.7,5.8,3.1,9.8,4.1c5.4,1.1,6.8,5.3,6.8,7.6c0,7.5-6.8,10-12.8,10c-6.3,0-12.8-2.2-13-10.1H1807.1z"/>
	<path class="st0" d="M1834.5,583.1c0,1.4,0.6,2.4,1.4,3.1c0.8,0.7,2,1,3.2,1c1.7,0,4.1-0.8,4.1-3c0-2.2-2.7-2.6-4.3-3
		c-5.5-1.5-12.3-1.6-12.3-9.2c0-6.8,6.9-8.6,12.1-8.6c5.8,0,11.9,1.8,12.2,9.1h-8c0-1.2-0.4-2-1.1-2.4c-0.7-0.5-1.7-0.7-2.8-0.7
		c-1.4,0-3.7,0.2-3.7,2.1c0,2.7,5.8,3.1,9.8,4.1c5.4,1.1,6.8,5.3,6.8,7.6c0,7.5-6.8,10-12.8,10c-6.3,0-12.8-2.2-13-10.1H1834.5z"/>
	<g>
		<path class="st1" d="M1519.2,554.9c10.5,0,18.9-10.1,18.9-21.1h-18.9V554.9z"/>
		<path class="st1" d="M1537.8,571.2c-10.5,0-18.9,10.1-18.9,21.1h18.9V571.2z"/>
		<path class="st1" d="M1521,573.1c0-11.1-9.5-20-20-20v20H1521z"/>
		<path class="st1" d="M1536.4,553c0,11.1,9.5,20,20,20v-20H1536.4z"/>
	</g>
</g>
<g>
	<polygon class="st0" points="104.9,27.7 108.1,27.7 122.4,63.7 122.5,63.7 136.6,27.7 139.9,27.7 139.9,66.4 137.6,66.4 
		137.6,30.6 137.5,30.6 123.6,66.4 121.3,66.4 107.2,30.6 107.1,30.6 107.1,66.4 104.9,66.4 	"/>
	<path class="st0" d="M166,51c-0.1-5.9-3.6-11.3-9.6-11.3c-5.8,0-9.3,5.7-9.7,11.3H166z M146.7,52.7c-0.1,6.6,3.2,12.5,9.7,12.5
		c5,0,8.5-3.1,9.4-8.3h1.9c-1,6.5-5.1,10.1-11.4,10.1c-7.7,0-11.7-6.4-11.6-14.1c-0.1-7.6,3.7-15.1,11.6-15.1
		c8.2,0,11.9,6.9,11.6,14.8H146.7z"/>
	<path class="st0" d="M183.5,64.3c6.9,0,9.3-6.1,9.3-11.9s-2.4-11.9-9.3-11.9c-6.1,0-8.7,6.1-8.7,11.9S177.3,64.3,183.5,64.3
		 M196,66.4h-3v-5.3h-0.1c-1.4,3.6-5.6,6.1-9.4,6.1c-8,0-11.9-6.9-11.9-14.8c0-7.9,3.8-14.8,11.9-14.8c3.9,0,7.8,2.1,9.2,6.1h0.1
		v-16h3.2V66.4z"/>
	<path class="st0" d="M202.2,38.4h3.2v28h-3.2V38.4z M202.2,27.7h3.2v5.5h-3.2V27.7z"/>
	<path class="st0" d="M219.8,50.4h12.4l-6.1-18H226L219.8,50.4z M223.5,27.7h5.4l14.3,38.7h-5.4l-4-11.6h-15.5l-4.1,11.6h-5
		L223.5,27.7z"/>
	<path class="st0" d="M262.9,47.4c-0.7-3.5-3-5.6-6.6-5.6c-6.3,0-8.2,5.3-8.2,10.9c0,5.1,2.2,10.2,7.7,10.2c4.2,0,6.7-2.6,7.3-6.8
		h4.5c-1,6.8-5,10.9-11.7,10.9c-8.1,0-12.4-6-12.4-14.3c0-8.4,4.1-15,12.5-15c6,0,10.8,3,11.4,9.6H262.9z"/>
	<path class="st0" d="M289,48.3c-0.5-3.1-2.4-4.8-5.4-4.8c-4.7,0-6.2,5-6.2,9.1c0,4,1.5,8.8,6,8.8c3.4,0,5.3-2.3,5.8-5.7h7
		c-0.9,7.4-5.8,11.5-12.8,11.5c-8,0-13.4-6-13.4-14.4c0-8.7,4.9-15.2,13.5-15.2c6.2,0,12,3.5,12.4,10.6H289z"/>
	<path class="st0" d="M317.6,49.4c-0.7-3.9-2.3-6-5.8-6c-4.6,0-5.9,3.8-6,6H317.6z M305.8,54.3c0.2,4.9,2.5,7.1,6.5,7.1
		c2.9,0,5.3-1.9,5.7-3.6h6.4c-2,6.6-6.4,9.4-12.4,9.4c-8.3,0-13.5-6.1-13.5-14.7c0-8.4,5.5-14.8,13.5-14.8c9,0,13.4,8,12.9,16.6
		H305.8z"/>
	<path class="st0" d="M335.1,57.1c0,1.4,0.6,2.4,1.4,3.1c0.8,0.7,2,1,3.2,1c1.7,0,4.1-0.8,4.1-3c0-2.2-2.7-2.6-4.3-3
		c-5.5-1.5-12.3-1.6-12.3-9.2c0-6.8,6.9-8.6,12.1-8.6c5.8,0,11.9,1.8,12.2,9.1h-8c0-1.2-0.4-2-1.1-2.4c-0.7-0.5-1.7-0.7-2.8-0.7
		c-1.4,0-3.7,0.2-3.7,2.1c0,2.7,5.8,3.1,9.8,4.1c5.4,1.1,6.8,5.3,6.8,7.6c0,7.5-6.8,10-12.8,10c-6.3,0-12.8-2.2-13-10.1H335.1z"/>
	<path class="st0" d="M362.5,57.1c0,1.4,0.6,2.4,1.4,3.1c0.8,0.7,2,1,3.2,1c1.7,0,4.1-0.8,4.1-3c0-2.2-2.7-2.6-4.3-3
		c-5.5-1.5-12.3-1.6-12.3-9.2c0-6.8,6.9-8.6,12.1-8.6c5.8,0,11.9,1.8,12.2,9.1h-8c0-1.2-0.4-2-1.1-2.4c-0.7-0.5-1.7-0.7-2.8-0.7
		c-1.4,0-3.7,0.2-3.7,2.1c0,2.7,5.8,3.1,9.8,4.1c5.4,1.1,6.8,5.3,6.8,7.6c0,7.5-6.8,10-12.8,10c-6.3,0-12.8-2.2-13-10.1H362.5z"/>
	<g>
		<path class="st1" d="M47.2,28.9c10.5,0,18.9-10.1,18.9-21.1H47.2V28.9z"/>
		<path class="st1" d="M65.8,45.2c-10.5,0-18.9,10.1-18.9,21.1h18.9V45.2z"/>
		<path class="st1" d="M49,47.1c0-11.1-9.5-20-20-20v20H49z"/>
		<path class="st1" d="M64.4,27c0,11.1,9.5,20,20,20V27H64.4z"/>
	</g>
</g>
</svg>
